<svg xmlns="http://www.w3.org/2000/svg" viewBox="0 0 980 980" fill="none" shape-rendering="auto"><metadata xmlns:rdf="http://www.w3.org/1999/02/22-rdf-syntax-ns#" xmlns:xsi="http://www.w3.org/2001/XMLSchema-instance" xmlns:dc="http://purl.org/dc/elements/1.1/" xmlns:dcterms="http://purl.org/dc/terms/"><rdf:RDF><rdf:Description><dc:title>Lorelei</dc:title><dc:creator>Lisa Wischofsky</dc:creator><dc:source xsi:type="dcterms:URI">https://www.figma.com/community/file/1198749693280469639</dc:source><dcterms:license xsi:type="dcterms:URI">https://creativecommons.org/publicdomain/zero/1.0/</dcterms:license><dc:rights>Remix of „Lorelei” (https://www.figma.com/community/file/1198749693280469639) by „Lisa Wischofsky”, licensed under „CC0 1.0” (https://creativecommons.org/publicdomain/zero/1.0/)</dc:rights></rdf:Description></rdf:RDF></metadata><mask id="viewboxMask"><rect width="980" height="980" rx="0" ry="0" x="0" y="0" fill="#fff" /></mask><g mask="url(#viewboxMask)"><rect fill="#f8dcc6" width="980" height="980" x="0" y="0" /><g transform="translate(10 -60)"><path fill-rule="evenodd" clip-rule="evenodd" d="M432 130a43 43 0 0 0-30-7c-2 1-5 1-6 3l5 1 11 3c7 3 13 9 17 16 9 10 14 23 17 36l-10-10a125 125 0 0 0-83-27l-14 2-10 2c-11 2-21 8-30 14-26 20-50 44-67 73-7 13-13 26-14 41-1 10 1 19 5 28 4 10 12 17 21 21a210 210 0 0 0-36 109 341 341 0 0 0 67 223c10 13 22 26 36 36-14 6-27 16-34 29-2 6-3 11-1 17l1 2h1l3-3 8-8c11-8 25-11 38-11 7-1 13 0 20 1h2l9 2 7 2 7 1h5c5 1 11 1 17-1l1-7c-7-26-22-47-40-67l-11-11c-10-10-20-20-29-32-6-7-11-16-16-25l-3-6c7 4 14 7 21 8 6 1 14 1 19-3 2-2 2-6 2-9v-1a2119 2119 0 0 0 0-47 884 884 0 0 1 5-47 359 359 0 0 0 42-66c-1 15-6 31-13 45l-2 2-3 10c3 2 6-1 8-3 9-9 16-21 20-33l2-7 2-7v21l-4 24-1 2v5c5 2 9 4 14 3 11-1 21-6 30-11a224 224 0 0 0 73-73 415 415 0 0 1-7 75l-2 11c0 2 2 3 3 3h2c3 2 6 1 9-1h1c6-2 12-6 17-10 15-9 27-22 35-37 0 16-1 31-4 47 0 2 0 4 2 4 5 0 9-2 13-5 15-14 25-33 31-52 7-25 7-50 3-75 8 9 14 21 19 32a203 203 0 0 1 14 81c0 1 0 4 2 4 8 0 13-3 19-7l1-2 20-17 1 6 5 21c2 4 3 8 7 11 2 1 5 0 7-1 10-7 18-18 23-30 7-17 8-36 4-53-2-11-6-23-12-32l-1-3-2-6c-1-13-3-27-8-39-10-28-30-51-54-67a179 179 0 0 0-114-29 203 203 0 0 1 57-33l17-8h1c1-1 4-2 4-4-7-8-19-9-28-10-25-2-51 1-74 11-21 10-41 25-57 43 4-17 3-35-3-52-6-15-16-28-30-36ZM253 250c4-18 11-35 21-50l-13 15c-9 12-16 25-22 38-4 10-6 22-4 33 1 7 3 14 8 19l12 7 8-10c-5-6-9-12-11-20-3-11-2-21 1-32Z" fill="#000000"/><path d="M486 236c57-2 115 18 159 56a209 209 0 0 1 73 190c-1 4-1 8-4 12l-1-3v-33a215 215 0 0 0-172-206 235 235 0 0 0-270 153c-12 37-14 78-6 116 6-2 12-2 17-2 2 1 5 1 6 3s0 3-1 4l-12 4c-14 3-27 8-37 18a63 63 0 0 0-22 45c0 12 3 24 8 35 8 13 19 24 33 31 18 10 41 13 62 7 2-1 4-2 6-1s3 4 4 6l15 30a215 215 0 0 0 72 63c28 15 59 21 90 26 3 1 8 1 10 4 1 2 0 3-2 4l-11 1a231 231 0 0 1-147-62c5 18 8 36 8 54 0 12-2 23-6 34-5 10-11 18-19 26a196 196 0 0 1-60 43c-1-1 1-2 2-3l17-14c13-12 25-23 35-38a93 93 0 0 0 17-65l-4-39-2-10-12-17c-5-10-11-20-13-31a93 93 0 0 1-96-31 81 81 0 0 1-19-51c0-12 3-23 8-34 9-16 23-29 40-36-8-31-8-62-3-93 8-40 26-77 51-108 45-54 115-87 186-88Z" fill="#000"/><path d="M541 252a214 214 0 0 1 172 206v33c-1 5-2 10-1 15-2 2-3 3-3 5-3 18-1 37 1 55 4 29 6 59 2 88-3 28-13 56-30 79-16 21-38 34-62 43-15 6-30 9-45 13-11 2-22 4-32 8 1 2 4 1 6 2 12 1 24-1 36-2-5 8-8 17-9 26-2 10 2 19 9 26 6 7 15 11 24 14 5 2 11 3 17 3 7 9 13 18 14 30 2 12-1 24-8 34-9 14-22 23-37 30-18 9-38 15-57 18a352 352 0 0 1-192-23c-18-10-38-23-48-42-4-7-8-16-6-24 18-10 33-23 47-38 8-8 14-16 19-26 4-11 6-22 6-34 0-18-3-36-8-54a235 235 0 0 0 147 62l11-1c2-1 3-2 2-4-2-3-7-3-10-4-31-5-62-11-90-26-18-10-36-22-50-37-8-8-16-17-22-26l-15-30c-1-2-2-5-4-6s-4 0-6 1a82 82 0 0 1-95-38c-5-11-8-23-8-35 1-17 9-34 22-45 10-10 23-15 37-18l12-4c1-1 2-2 1-4s-4-2-6-3c-5 0-11 0-17 2-8-38-6-79 6-116a236 236 0 0 1 270-153Z" fill="#ffffff"/><path d="m712 506 3 3 1 13 3 45c3 20 5 40 5 60 0 16-1 32-5 47-6 28-20 56-40 76a174 174 0 0 1-88 46c-1 9-4 16-4 25-1 6 2 10 5 15 8 8 18 14 28 19l18 9c-3 3-8 1-12 2-6 0-12-1-17-3-9-3-18-7-24-14-7-7-11-16-9-26 1-9 4-18 9-26-12 1-24 3-36 2-2-1-5 0-6-2 10-4 21-6 32-8 15-4 30-7 45-13 24-9 46-22 62-43 17-23 27-51 30-79 4-29 2-59-2-88-2-18-4-37-1-55 0-2 1-3 3-5ZM262 566c6 0 12 1 15 6 2 3 2 7 1 10-3 8-9 14-11 22-1 4 0 7 3 9 7 5 16 7 24 10l-2 2h-11c-6-1-12-2-17-5-5-4-9-11-7-18 2-9 9-15 12-23-7-4-14-2-20-8 3-4 8-6 13-5Z" fill="#000"/><path d="M681 473c6 2 12 7 15 13 2 3 2 6 0 9-2 4-8 6-12 3-4-2-6-6-9-9-7-3-13-2-19 0 3 3 6 6 7 10 4 12 3 25-2 36l10-5c0 4 0 7-2 11-5 6-13 10-20 11-9 1-17 2-25-2-4-3-5-7-5-11l-2-10c0-7 3-13 6-19 7-14 18-26 31-33 8-4 18-6 27-4ZM456 484c27 1 53 17 65 41 2 3 3 6 1 10-3-1-4-3-6-6-6-9-13-17-22-23-10-6-22-9-34-9 6 10 9 21 8 32-1 9-4 19-12 26 4 1 7 2 9 4-6 3-13 3-20 1-9-2-17-6-25-11-8-6-16-13-20-23l-4-8c-2-4-1-8 2-11l10-9c14-10 31-15 48-14Z" fill="#000000"/><path d="M467 377c15 1 32 5 44 15 4 3 8 7 9 11 1 3 1 5-2 6-3 0-6-3-8-5-11-8-24-13-38-13-8 0-15 2-23 4-15 3-29 11-38 23-3 3-5 7-10 8s-10-3-10-8c-1-4 2-8 4-11 12-15 30-25 49-29 7-2 15-2 23-1ZM672 387c5 2 10 7 13 11 3 3 5 7 5 11 0 6-6 10-12 8-5-2-6-7-10-11-4-3-9-7-13-8-12-4-24 1-32 9l-9 9c0-7 4-13 9-17 12-13 32-18 49-12Z" fill="#000000"/><path d="m591 528 2 2 7 22c4 8 10 15 15 23 4 6 6 13 5 20-1 6-4 12-9 16-7 7-16 12-25 16-5 3-11 4-17 2l5-4c11-9 25-14 36-24 2-2 4-6 4-9-1-7-5-11-8-16-5-9-10-16-13-25-2-7-4-16-2-23Z" fill="#000000"/><path fill-rule="evenodd" clip-rule="evenodd" d="M603 664c-2-2-4-1-6-1a400 400 0 0 0-58 26l-5 4-1 4 4 5 4 5c6 5 13 11 21 14 5 2 12 3 16-1 5-3 8-9 10-14a375 375 0 0 0 15-36v-6Zm-14 21 4-12-51 23 12 9 10 8c3 2 8 4 11 1l6-9 1-2 7-18Z" fill="#000000"/><path d="M593 164c7 0 15 1 22 4l9 5c-1 4-4 4-6 6l-33 14c-14 7-28 16-40 26a169 169 0 0 1 139 50 123 123 0 0 1 29 130c-9 26-28 50-52 65-4 3-8 3-13 3l-1-2c2-15 0-29-3-44-4-26-14-50-30-71 4 21 4 43-1 64-4 20-13 42-28 57-4 4-9 9-14 10-2 0-6 1-6-1l2-16c2-11 2-22 2-34a99 99 0 0 1-57 50l-9-2c-1-4 0-8 1-13a309 309 0 0 0 7-75c-10 20-26 37-43 52-11 9-23 18-36 24-8 4-16 8-25 8-5 0-9-1-13-3a168 168 0 0 0 5-55c-1 7-3 15-6 22-3 9-8 17-14 25l-8 6c-2 0-3 1-4-1 1-5 4-9 6-13 7-14 11-29 12-44a273 273 0 0 1-42 67c-2 1-2 3-2 4l-3 42v46c0 4 1 9-1 12-2 2-5 2-8 3-9 2-17-1-25-4s-15-8-21-15c-6-6-11-13-15-21l-7-6a138 138 0 0 1-51-111c0-27 8-53 19-77a254 254 0 0 1 181-131c17-2 36-3 53 1l16-17a151 151 0 0 1 114-40Z" fill="#000000"/></g><g transform="translate(10 -60)"></g></g></svg>
